<svg xmlns="http://www.w3.org/2000/svg" width="32" height="32" viewBox="0 0 32 32" fill="none">
  <path d="M16 28C16 28 4 20 4 12C4 8 7 5 10.5 5C12.8 5 14.8 6.2 16 8C17.2 6.2 19.2 5 21.5 5C25 5 28 8 28 12C28 20 16 28 16 28Z" fill="#2d5a3d" opacity="0.15"/>
  <path d="M16 28C16 28 4 20 4 12C4 8 7 5 10.5 5C12.8 5 14.8 6.2 16 8C17.2 6.2 19.2 5 21.5 5C25 5 28 8 28 12C28 20 16 28 16 28Z" stroke="#2d5a3d" stroke-width="1.5" stroke-linecap="round" stroke-linejoin="round"/>
  <path d="M8 15H12L13.5 11L16 19L18.5 13L20 15H24" stroke="#2d5a3d" stroke-width="1.8" stroke-linecap="round" stroke-linejoin="round"/>
</svg>
